<svg width="30" height="96" viewBox="0 0 30 96" fill="none" xmlns="http://www.w3.org/2000/svg">
<path d="M15.2379 90.6361L15.238 1.15887" stroke="white" stroke-width="2" stroke-linecap="round"/>
<path d="M15.3537 90.4739C15.053 89.7068 14.7139 88.823 14.4683 88.1832C14.2932 87.7269 14.1657 87.3946 14.1337 87.3172C12.0536 82.2792 9.30329 77.8339 5.80822 73.6367C5.52497 73.2957 5.01707 73.2498 4.67605 73.533C4.33503 73.8163 4.28915 74.3241 4.5724 74.6651C7.96291 78.7342 10.6313 83.0446 12.6486 87.9318C12.6804 88.0088 12.8067 88.3373 12.9808 88.7901C13.4506 90.012 14.2684 92.1392 14.5177 92.6731C14.6564 92.9738 14.8283 93.1009 14.8718 93.1271C15.0971 93.2746 15.304 93.2768 15.4628 93.2474C15.6417 93.2128 15.9232 93.0837 16.1381 92.7462C16.3036 92.4838 16.501 91.9524 16.6281 91.6104C16.6725 91.4907 16.7083 91.3943 16.7312 91.3406C17.1092 90.4591 17.478 89.5396 17.8531 88.604C18.8081 86.2225 19.8047 83.7372 21.1021 81.5129C22.8252 78.5581 25.0818 76.0608 28.5644 74.9961C28.9885 74.8668 29.227 74.416 29.0977 73.9919C28.9685 73.5678 28.5177 73.3293 28.0936 73.4586C24.2002 74.6498 21.6398 77.4005 19.714 80.7022C18.3843 82.9826 17.3604 85.5285 16.3802 87.9657C16.0364 88.8205 15.698 89.662 15.3537 90.4739Z" fill="white"/>
<path d="M15.3537 90.4739C15.053 89.7068 14.7139 88.823 14.4683 88.1832C14.2932 87.7269 14.1657 87.3946 14.1337 87.3172C12.0536 82.2792 9.30329 77.8339 5.80822 73.6367C5.52497 73.2957 5.01707 73.2498 4.67605 73.533C4.33503 73.8163 4.28915 74.3241 4.5724 74.6651C7.96291 78.7342 10.6313 83.0446 12.6486 87.9318C12.6804 88.0088 12.8067 88.3373 12.9808 88.7901C13.4506 90.012 14.2684 92.1392 14.5177 92.6731C14.6564 92.9738 14.8283 93.1009 14.8718 93.1271C15.0971 93.2746 15.304 93.2768 15.4628 93.2474C15.6417 93.2128 15.9232 93.0837 16.1381 92.7462C16.3036 92.4838 16.501 91.9524 16.6281 91.6104C16.6725 91.4907 16.7083 91.3943 16.7312 91.3406C17.1092 90.4591 17.478 89.5396 17.8531 88.604C18.8081 86.2225 19.8047 83.7372 21.1021 81.5129C22.8252 78.5581 25.0818 76.0608 28.5644 74.9961C28.9885 74.8668 29.227 74.416 29.0977 73.9919C28.9685 73.5678 28.5177 73.3293 28.0936 73.4586C24.2002 74.6498 21.6398 77.4005 19.714 80.7022C18.3843 82.9826 17.3604 85.5285 16.3802 87.9657C16.0364 88.8205 15.698 89.662 15.3537 90.4739Z" stroke="white"/>
</svg>
