<svg width="24" height="24" viewBox="0 0 24 24" fill="none" xmlns="http://www.w3.org/2000/svg">
<path fill-rule="evenodd" clip-rule="evenodd" d="M20.556 22.998H3.44792C2.09813 22.998 1.00391 21.9038 1.00391 20.554V3.44596C1.00391 2.09617 2.09813 1.00195 3.44792 1.00195H20.556C21.9058 1.00195 23 2.09617 23 3.44596V20.554C23 21.9038 21.9058 22.998 20.556 22.998ZM16.6797 19.9431H19.9438V13.2377C19.9438 10.4006 18.3355 9.0288 16.0891 9.0288C13.8417 9.0288 12.8959 10.7789 12.8959 10.7789V9.35236H9.75023V19.9431H12.8959V14.3836C12.8959 12.894 13.5816 12.0075 14.8941 12.0075C16.1005 12.0075 16.6797 12.8593 16.6797 14.3836V19.9431ZM4.05773 6.0113C4.05773 7.09053 4.92598 7.96559 5.99746 7.96559C7.06894 7.96559 7.93668 7.09053 7.93668 6.0113C7.93668 4.93207 7.06894 4.057 5.99746 4.057C4.92598 4.057 4.05773 4.93207 4.05773 6.0113ZM7.65329 19.9431H4.37317V9.35236H7.65329V19.9431Z" fill="white"/>
</svg>
