<svg width="243" height="243" viewBox="0 0 243 243" fill="none" xmlns="http://www.w3.org/2000/svg">
<path d="M117.95 3.95678C118.705 3.92712 119.377 4.03616 119.966 4.28392C120.555 4.53167 121.023 4.90095 121.369 5.39174C121.715 5.88254 121.902 6.48233 121.93 7.19112L121.945 7.58282L120.127 7.65422L120.111 7.26252C120.088 6.67498 119.889 6.23912 119.514 5.95497C119.138 5.68014 118.638 5.55499 118.014 5.57953C117.379 5.60443 116.913 5.74882 116.616 6.01271C116.308 6.27697 116.162 6.60495 116.178 6.99664C116.188 7.2671 116.276 7.48315 116.441 7.6448C116.597 7.80681 116.826 7.93325 117.129 8.02412C117.422 8.12468 117.781 8.21336 118.204 8.29014L118.529 8.34745C119.206 8.4703 119.792 8.63412 120.285 8.83891C120.77 9.05339 121.15 9.34202 121.426 9.70482C121.693 10.068 121.838 10.548 121.861 11.1449C121.884 11.7417 121.765 12.2555 121.501 12.6862C121.229 13.1265 120.841 13.4687 120.337 13.7126C119.824 13.9663 119.217 14.1069 118.518 14.1343C117.818 14.1618 117.193 14.0649 116.643 13.8437C116.084 13.6321 115.641 13.2946 115.314 12.831C114.979 12.3772 114.797 11.7958 114.769 11.0871L114.753 10.6674L116.571 10.596L116.588 11.0157C116.603 11.3887 116.689 11.6842 116.847 11.9022C116.996 12.1298 117.208 12.2896 117.482 12.3816C117.757 12.4829 118.081 12.5262 118.454 12.5116C119.014 12.4896 119.424 12.3661 119.686 12.1409C119.94 11.9255 120.059 11.6359 120.045 11.2722C120.035 11.0297 119.966 10.827 119.839 10.6638C119.701 10.5011 119.505 10.3687 119.249 10.2667C118.992 10.1647 118.667 10.0794 118.272 10.0108L117.947 9.9535C117.242 9.83175 116.628 9.66436 116.106 9.45135C115.575 9.2387 115.157 8.94687 114.853 8.57585C114.549 8.20483 114.385 7.72088 114.361 7.12401C114.338 6.52713 114.471 5.99416 114.761 5.5251C115.042 5.06573 115.457 4.69449 116.006 4.41139C116.547 4.13798 117.194 3.98644 117.95 3.95678Z" fill="white"/>
<path d="M101.947 5.70339C102.739 5.57575 103.444 5.60874 104.061 5.80237C104.671 6.00669 105.171 6.35158 105.561 6.83704C105.944 7.3332 106.194 7.94986 106.313 8.68702L107.324 14.9621L105.5 15.256L104.48 8.92561C104.385 8.33588 104.144 7.89727 103.757 7.60977C103.361 7.32375 102.845 7.23194 102.21 7.33436C101.574 7.43677 101.117 7.68516 100.841 8.07953C100.555 8.47538 100.459 8.96817 100.554 9.5579L101.574 15.8883L99.7497 16.1821L98.7386 9.90707C98.6198 9.16991 98.6686 8.50501 98.8851 7.91238C99.0939 7.33044 99.4602 6.84603 99.9839 6.45914C100.5 6.08295 101.154 5.83104 101.947 5.70339Z" fill="white"/>
<path d="M93.104 7.76917L95.8147 17.1868L94.0387 17.6978L92.9196 13.8097L89.4215 14.8162L90.5406 18.7043L88.7647 19.2153L86.054 9.79768L87.83 9.28668L88.9568 13.2017L92.4549 12.1952L91.328 8.28017L93.104 7.76917Z" fill="white"/>
<path d="M78.3019 12.5696L82.3182 21.5088L76.5712 24.09L75.8827 22.5575L79.9439 20.7335L78.9857 18.6008L75.2821 20.2643L74.5936 18.7319L78.2972 17.0684L77.3046 14.8591L73.1668 16.7176L72.4783 15.1852L78.3019 12.5696Z" fill="white"/>
<path d="M61.6839 20.5793L66.8893 28.8826L65.3234 29.8639L61.0104 22.9841L57.2142 25.3631L56.3219 23.9397L61.6839 20.5793Z" fill="white"/>
<path d="M50.3906 27.6403L56.5562 35.2577L55.1196 36.4202L52.671 33.395L52.4751 33.5535L52.4532 38.5777L50.6139 40.066L50.7531 33.7402L44.3394 32.5366L46.2331 31.0043L51.2596 32.0518L51.4555 31.8932L48.954 28.8028L50.3906 27.6403Z" fill="white"/>
<path d="M39.1965 36.8937L46.2622 43.6845L44.9814 45.0167L42.0643 42.213L39.5416 44.837L42.4587 47.6407L41.1779 48.9729L34.1122 42.1821L35.393 40.8499L38.3303 43.6729L40.853 41.0489L37.9157 38.2259L39.1965 36.8937Z" fill="white"/>
<path d="M29.5697 47.7457L35.8854 55.6691L33.96 58.2501L24.5637 54.4562L25.7022 52.9301L27.7486 53.7926L29.8415 50.9872L28.4313 49.2719L29.5697 47.7457ZM30.9511 52.3561L29.3773 54.4658L33.9159 56.3659L34.0666 56.164L30.9511 52.3561Z" fill="white"/>
<path d="M21.4815 60.468L29.8779 65.5219L28.0653 68.5323L19.7447 65.7954L19.6147 66.0113L26.9315 70.4153L25.9927 71.9745L17.5963 66.9207L19.4089 63.9102L27.7296 66.6472L27.8595 66.4313L20.5427 62.0272L21.4815 60.468Z" fill="white"/>
<path d="M8.14234 90.476L17.6699 92.7708L16.7255 96.6906C16.5812 97.2895 16.3319 97.7862 15.9776 98.1809C15.6301 98.5868 15.2081 98.8644 14.7113 99.0135C14.2124 99.1718 13.6634 99.1788 13.0646 99.0345L12.874 98.9886C12.2842 98.8466 11.7998 98.5859 11.4208 98.2066C11.0486 97.8385 10.7958 97.3936 10.6623 96.8719C10.5357 96.3614 10.5424 95.8158 10.6823 95.235L11.1938 93.1118L7.70948 92.2726L8.14234 90.476ZM12.8271 93.5052L12.3582 95.4515C12.2554 95.878 12.2903 96.2512 12.4628 96.5711C12.6354 96.8911 12.9258 97.1002 13.3341 97.1986L13.4702 97.2314C13.8785 97.3297 14.2324 97.2757 14.5317 97.0694C14.831 96.8631 15.032 96.5467 15.1348 96.1203L15.6037 94.174L12.8271 93.5052Z" fill="white"/>
<path d="M4.33887 107.959C4.47611 106.735 4.91919 105.798 5.6681 105.15C6.4263 104.502 7.43148 104.248 8.68364 104.389L11.021 104.651C12.2732 104.791 13.1926 105.26 13.7793 106.058C14.3753 106.858 14.6047 107.87 14.4675 109.094C14.3302 110.318 13.8825 111.254 13.1243 111.902C12.3754 112.551 11.3749 112.805 10.1227 112.664L7.78533 112.402C6.53317 112.262 5.60908 111.792 5.01309 110.993C4.42636 110.195 4.20162 109.183 4.33887 107.959ZM5.98059 108.143C5.90365 108.829 6.04329 109.385 6.3995 109.81C6.7557 110.235 7.26772 110.485 7.93554 110.56L10.3842 110.834C11.052 110.909 11.6067 110.779 12.0481 110.443C12.4896 110.107 12.7488 109.596 12.8257 108.91C12.9016 108.233 12.762 107.677 12.4068 107.243C12.0506 106.818 11.5386 106.568 10.8708 106.493L8.42212 106.219C7.7543 106.144 7.19966 106.274 6.7582 106.61C6.31569 106.955 6.05649 107.466 5.98059 108.143Z" fill="white"/>
<path d="M3.98847 119.924L13.7876 119.795L13.8437 124.051C13.8518 124.666 13.7515 125.205 13.5429 125.665C13.3343 126.125 13.0357 126.483 12.647 126.741C12.2584 126.998 11.7981 127.13 11.2661 127.137L11.0981 127.139C10.5102 127.147 10.0324 127.013 9.66472 126.738C9.29706 126.463 9.02653 126.121 8.85314 125.712L8.60116 125.716C8.58741 126.089 8.46057 126.38 8.22063 126.589C7.99002 126.797 7.67873 126.904 7.28677 126.909L4.08105 126.951L4.0567 125.103L6.99645 125.065C7.22043 125.062 7.40161 124.999 7.54 124.876C7.67851 124.762 7.74599 124.57 7.74242 124.299L7.70849 121.723L4.01281 121.772L3.98847 119.924ZM9.38834 121.701L9.41748 123.913C9.42326 124.351 9.5444 124.691 9.78091 124.93C10.0269 125.179 10.3458 125.301 10.7378 125.296L10.8778 125.294C11.2698 125.289 11.5808 125.163 11.8109 124.917C12.0504 124.672 12.1671 124.325 12.1612 123.877L12.1321 121.665L9.38834 121.701Z" fill="white"/>
<path d="M4.5253 135.826L12.5729 134.744L12.1923 131.913L13.8573 131.69L14.8649 139.182L13.1998 139.406L12.8192 136.576L4.77159 137.657L4.5253 135.826Z" fill="white"/>
<path d="M6.63528 147.135L16.1311 144.712L17.6544 150.681L16.0265 151.096L14.9602 146.918L12.6677 147.503L13.6508 151.355L12.023 151.771L11.0398 147.918L7.09225 148.925L6.63528 147.135Z" fill="white"/>
<path d="M11.4469 164.308C11.001 163.159 10.9595 162.124 11.3224 161.202C11.6941 160.277 12.4672 159.587 13.6419 159.131L15.8345 158.28C17.0091 157.824 18.0414 157.814 18.9314 158.249C19.83 158.681 20.5023 159.471 20.9482 160.62C21.3942 161.768 21.4313 162.805 21.0596 163.73C20.6967 164.652 19.9279 165.341 18.7533 165.797L16.5606 166.648C15.386 167.104 14.3494 167.116 13.4507 166.684C12.5608 166.248 11.8928 165.456 11.4469 164.308ZM12.9869 163.71C13.2369 164.354 13.6182 164.782 14.1309 164.993C14.6435 165.205 15.2131 165.189 15.8396 164.946L18.1366 164.054C18.763 163.811 19.1941 163.438 19.4297 162.936C19.6654 162.434 19.6582 161.862 19.4082 161.218C19.1616 160.583 18.7803 160.155 18.2642 159.935C17.7516 159.723 17.182 159.739 16.5556 159.982L14.2585 160.874C13.6321 161.117 13.201 161.489 12.9654 161.991C12.7332 162.502 12.7403 163.075 12.9869 163.71Z" fill="white"/>
<path d="M16.0489 174.154L24.6924 169.536L25.5635 171.165L18.4017 174.992L20.5135 178.943L19.0317 179.735L16.0489 174.154Z" fill="white"/>
<path d="M22.7945 185.231L30.9628 179.816L31.9841 181.357L23.8157 186.771L22.7945 185.231Z" fill="white"/>
<path d="M29.9942 196.389C29.2111 195.438 28.8476 194.468 28.9038 193.479C28.9671 192.484 29.4852 191.586 30.4581 190.786L32.2741 189.291C33.247 188.49 34.2242 188.157 35.2058 188.292C36.1946 188.421 37.0805 188.961 37.8636 189.913C38.6466 190.864 39.0065 191.837 38.9431 192.832C38.887 193.821 38.3725 194.716 37.3996 195.516L35.5836 197.011C34.6108 197.812 33.6299 198.148 32.6411 198.019C31.6596 197.884 30.7772 197.341 29.9942 196.389ZM31.2697 195.34C31.7087 195.873 32.2047 196.16 32.7578 196.2C33.3109 196.24 33.8469 196.047 34.3658 195.62L36.2683 194.054C36.7871 193.627 37.0799 193.138 37.1465 192.588C37.2132 192.037 37.027 191.496 36.588 190.962C36.155 190.436 35.6589 190.15 35.0999 190.102C34.5468 190.062 34.0108 190.255 33.4919 190.682L31.5894 192.248C31.0706 192.675 30.7778 193.164 30.7112 193.714C30.6505 194.272 30.8366 194.814 31.2697 195.34Z" fill="white"/>
<path d="M44.5816 209.948L45.321 209.034C45.7494 208.504 46.1915 208.135 46.6474 207.927C47.1091 207.713 47.5943 207.625 48.1029 207.664C48.6245 207.701 49.1836 207.841 49.78 208.083L50.6944 208.444C51.0334 208.574 51.3435 208.651 51.6247 208.674C51.9118 208.69 52.1759 208.646 52.417 208.541C52.6653 208.441 52.8833 208.275 53.0711 208.043L53.1063 208C53.3998 207.637 53.5081 207.25 53.4315 206.84C53.3608 206.423 53.1113 206.042 52.683 205.695C52.262 205.355 51.827 205.195 51.3779 205.216C50.9419 205.236 50.5508 205.46 50.2046 205.888L50.0461 206.084L48.6525 204.958L48.7933 204.784C49.2393 204.232 49.7412 203.864 50.299 203.678C50.8568 203.493 51.4284 203.469 52.0137 203.606C52.6062 203.749 53.1638 204.032 53.6865 204.454C54.2091 204.877 54.5988 205.36 54.8555 205.903C55.118 206.439 55.2224 206.986 55.1685 207.542C55.1277 208.097 54.9108 208.618 54.5176 209.104L54.4296 209.213C54.0364 209.7 53.6003 210.031 53.1213 210.208C52.6553 210.383 52.1638 210.442 51.6466 210.384C51.1352 210.319 50.6061 210.179 50.059 209.965L49.1862 209.619C48.7977 209.462 48.4695 209.37 48.2014 209.346C47.9392 209.314 47.716 209.337 47.5319 209.416C47.361 209.494 47.1992 209.628 47.0466 209.816L47.0114 209.86L51.1162 213.178L50.1127 214.419L44.5816 209.948Z" fill="white"/>
<path d="M59.2858 221.134C58.3022 220.524 57.6801 219.765 57.4197 218.857C57.1642 217.94 57.3783 216.931 58.0621 215.829L59.3608 213.735C60.0249 212.664 60.8266 212.035 61.7659 211.849C62.7101 211.655 63.674 211.862 64.6576 212.472C65.6492 213.087 66.2638 213.858 66.5015 214.785C66.7521 215.709 66.5454 216.707 65.8813 217.777L64.5826 219.871C63.8988 220.974 63.0897 221.614 62.1554 221.793C61.2339 221.968 60.2773 221.748 59.2858 221.134ZM60.127 219.777C60.7219 220.146 61.259 220.254 61.7384 220.101C62.2256 219.953 62.6562 219.577 63.03 218.975L64.4025 216.762C64.7813 216.151 64.908 215.593 64.7825 215.086C64.6699 214.577 64.3479 214.158 63.8164 213.829C63.2691 213.489 62.7399 213.386 62.2288 213.52C61.7257 213.658 61.2921 214.021 60.9281 214.608L59.5556 216.82C59.167 217.447 59.0171 218.008 59.1059 218.502C59.2076 218.993 59.5479 219.418 60.127 219.777Z" fill="white"/>
<path d="M68.5914 226.637L69.082 225.568C69.3662 224.949 69.7036 224.483 70.0941 224.169C70.4885 223.847 70.9369 223.642 71.4393 223.554C71.9541 223.462 72.5304 223.459 73.1681 223.546L74.1433 223.67C74.5039 223.713 74.8233 223.71 75.1016 223.663C75.3838 223.608 75.6286 223.5 75.8363 223.338C76.0524 223.181 76.2227 222.966 76.3473 222.695L76.3707 222.644C76.5654 222.22 76.575 221.819 76.3995 221.44C76.2279 221.053 75.8918 220.745 75.3913 220.515C74.8993 220.29 74.4383 220.242 74.0083 220.374C73.5907 220.5 73.2671 220.814 73.0373 221.314L72.9322 221.544L71.3035 220.796L71.397 220.593C71.6929 219.948 72.0882 219.467 72.583 219.15C73.0778 218.833 73.6257 218.668 74.2267 218.656C74.8363 218.648 75.4464 218.785 76.0572 219.065C76.6679 219.345 77.1648 219.717 77.5478 220.18C77.9346 220.635 78.1707 221.139 78.2559 221.691C78.3536 222.239 78.2719 222.797 78.0111 223.366L77.9527 223.493C77.6918 224.061 77.3511 224.49 76.9305 224.78C76.5224 225.065 76.0606 225.243 75.5451 225.315C75.0335 225.378 74.4862 225.373 73.9032 225.301L72.9721 225.182C72.5567 225.125 72.2161 225.117 71.9502 225.159C71.6882 225.193 71.4778 225.271 71.319 225.393C71.1725 225.511 71.0487 225.68 70.9475 225.901L70.9241 225.952L75.7211 228.153L75.0553 229.603L68.5914 226.637Z" fill="white"/>
<path d="M86.5456 233.573L87.1518 231.68L82.565 230.212L83.1967 228.238L88.1737 223.804L91.2405 224.786L89.3451 230.706L90.8918 231.201L90.4052 232.721L88.8585 232.226L88.2523 234.119L86.5456 233.573ZM84.6783 229.212L87.6384 230.16L89.1837 225.333L88.9437 225.256L84.7466 228.999L84.6783 229.212Z" fill="white"/>
<path d="M107.082 236.351C106.712 236.304 106.385 236.174 106.101 235.96C105.827 235.746 105.616 235.475 105.47 235.147C105.332 234.819 105.287 234.465 105.335 234.086C105.381 233.715 105.506 233.392 105.71 233.117C105.924 232.833 106.195 232.623 106.523 232.485C106.851 232.347 107.204 232.302 107.584 232.35C107.973 232.399 108.305 232.53 108.579 232.743C108.864 232.948 109.07 233.214 109.199 233.54C109.337 233.859 109.382 234.212 109.334 234.601C109.285 234.99 109.149 235.326 108.925 235.608C108.712 235.882 108.441 236.088 108.114 236.226C107.787 236.354 107.443 236.396 107.082 236.351Z" fill="white"/>
<path d="M128.062 238.539C127.308 238.588 126.633 238.496 126.038 238.263C125.444 238.03 124.967 237.673 124.608 237.191C124.25 236.709 124.048 236.114 124.002 235.406L123.977 235.015L125.793 234.898L125.818 235.289C125.856 235.876 126.066 236.306 126.449 236.581C126.831 236.846 127.334 236.959 127.958 236.918C128.591 236.877 129.053 236.721 129.344 236.45C129.645 236.178 129.782 235.846 129.757 235.455C129.74 235.185 129.646 234.971 129.477 234.814C129.317 234.656 129.085 234.535 128.78 234.452C128.484 234.359 128.124 234.279 127.699 234.213L127.373 234.164C126.693 234.059 126.103 233.91 125.604 233.717C125.114 233.515 124.727 233.236 124.442 232.881C124.166 232.524 124.009 232.048 123.971 231.452C123.932 230.856 124.039 230.339 124.291 229.902C124.553 229.455 124.932 229.103 125.43 228.847C125.936 228.58 126.539 228.424 127.237 228.379C127.936 228.334 128.563 228.415 129.119 228.622C129.684 228.82 130.135 229.146 130.473 229.601C130.82 230.046 131.016 230.623 131.062 231.331L131.089 231.75L129.273 231.867L129.246 231.448C129.221 231.075 129.128 230.782 128.964 230.568C128.809 230.344 128.594 230.19 128.317 230.105C128.04 230.011 127.715 229.976 127.342 230C126.783 230.036 126.376 230.17 126.119 230.401C125.872 230.623 125.76 230.916 125.783 231.279C125.799 231.521 125.873 231.722 126.005 231.882C126.146 232.041 126.346 232.168 126.605 232.264C126.863 232.359 127.191 232.436 127.588 232.495L127.913 232.544C128.622 232.648 129.239 232.8 129.767 233C130.303 233.199 130.728 233.48 131.042 233.843C131.355 234.206 131.531 234.686 131.57 235.282C131.608 235.878 131.489 236.414 131.211 236.89C130.942 237.357 130.536 237.738 129.994 238.035C129.461 238.322 128.817 238.49 128.062 238.539Z" fill="white"/>
<path d="M144.046 236.741C143.257 236.889 142.552 236.874 141.93 236.696C141.315 236.507 140.807 236.175 140.404 235.7C140.009 235.213 139.743 234.603 139.606 233.869L138.436 227.622L140.253 227.282L141.433 233.584C141.542 234.171 141.794 234.604 142.188 234.881C142.591 235.157 143.109 235.236 143.742 235.118C144.375 234.999 144.825 234.739 145.092 234.338C145.368 233.935 145.451 233.44 145.341 232.853L144.161 226.55L145.977 226.21L147.147 232.458C147.284 233.192 147.252 233.858 147.051 234.456C146.857 235.043 146.503 235.536 145.989 235.936C145.483 236.325 144.835 236.594 144.046 236.741Z" fill="white"/>
<path d="M152.888 234.73L149.94 225.384L151.702 224.828L152.919 228.687L156.391 227.592L155.174 223.733L156.936 223.178L159.884 232.524L158.122 233.079L156.896 229.194L153.425 230.289L154.65 234.174L152.888 234.73Z" fill="white"/>
<path d="M167.669 229.884L163.428 221.049L169.108 218.323L169.835 219.838L165.821 221.764L166.833 223.872L170.493 222.115L171.22 223.63L167.56 225.386L168.608 227.57L172.697 225.607L173.424 227.122L167.669 229.884Z" fill="white"/>
<path d="M183.262 221.833L177.848 213.664L179.389 212.643L183.874 219.412L187.609 216.938L188.537 218.338L183.262 221.833Z" fill="white"/>
<path d="M194.528 212.742L188.171 205.283L189.578 204.085L192.103 207.047L192.294 206.884L192.189 201.86L193.99 200.326L194.011 206.653L200.453 207.694L198.599 209.274L193.547 208.354L193.356 208.518L195.934 211.544L194.528 212.742Z" fill="white"/>
<path d="M205.689 203.459L198.454 196.849L199.701 195.485L202.688 198.214L205.144 195.527L202.156 192.798L203.403 191.433L210.638 198.043L209.392 199.408L206.384 196.66L203.928 199.347L206.936 202.095L205.689 203.459Z" fill="white"/>
<path d="M217.119 190.349C216.834 190.753 216.509 191.067 216.146 191.29C215.775 191.507 215.388 191.617 214.987 191.619C214.583 191.608 214.187 191.465 213.798 191.19C213.41 190.915 213.15 190.595 213.021 190.229C212.889 189.85 212.874 189.45 212.976 189.031C213.076 188.599 213.277 188.169 213.579 187.743L214.678 186.188L214.358 185.962C214.091 185.773 213.815 185.704 213.529 185.753C213.235 185.796 212.959 186.001 212.7 186.367C212.447 186.725 212.342 187.051 212.385 187.345C212.422 187.633 212.55 187.896 212.772 188.132L211.388 189.143C211.163 188.847 211.003 188.516 210.906 188.151C210.808 187.773 210.805 187.365 210.897 186.927C210.988 186.476 211.205 186.007 211.55 185.52C212.078 184.773 212.683 184.314 213.363 184.144C214.044 183.974 214.739 184.139 215.447 184.64L217.562 186.136C217.791 186.297 217.98 186.271 218.131 186.058L218.455 185.601L219.644 186.442L218.964 187.402C218.765 187.684 218.532 187.868 218.266 187.953C217.999 188.039 217.751 188.001 217.523 187.84L217.511 187.832L217.358 188.049C217.428 188.144 217.501 188.299 217.578 188.513C217.647 188.722 217.658 188.981 217.611 189.291C217.564 189.6 217.4 189.953 217.119 190.349ZM216.131 189.273C216.417 188.87 216.538 188.464 216.495 188.056C216.45 187.635 216.24 187.293 215.867 187.029L215.753 186.948L214.726 188.4C214.537 188.666 214.446 188.916 214.453 189.15C214.459 189.383 214.565 189.572 214.771 189.718C214.977 189.863 215.201 189.902 215.444 189.833C215.687 189.765 215.916 189.578 216.131 189.273Z" fill="white"/>
<path d="M223.338 180.84L214.816 176L216.552 172.944L224.939 175.47L225.064 175.251L217.638 171.033L218.537 169.451L227.059 174.291L225.323 177.346L216.936 174.821L216.811 175.04L224.237 179.257L223.338 180.84Z" fill="white"/>
<path d="M235.576 149.8L225.993 147.747L226.838 143.805C226.967 143.202 227.204 142.699 227.548 142.296C227.885 141.881 228.3 141.593 228.793 141.432C229.288 141.261 229.836 141.24 230.439 141.369L230.63 141.41C231.223 141.537 231.714 141.785 232.103 142.155C232.484 142.514 232.748 142.952 232.895 143.47C233.034 143.977 233.041 144.523 232.916 145.107L232.458 147.242L235.963 147.993L235.576 149.8ZM230.816 146.891L231.235 144.933C231.327 144.504 231.283 144.132 231.102 143.816C230.922 143.501 230.626 143.299 230.215 143.211L230.079 143.182C229.668 143.094 229.316 143.157 229.022 143.371C228.728 143.584 228.535 143.906 228.443 144.335L228.023 146.292L230.816 146.891Z" fill="white"/>
<path d="M238.241 132.299C238.135 133.526 237.716 134.473 236.983 135.141C236.242 135.807 235.243 136.086 233.988 135.978L231.645 135.775C230.389 135.666 229.458 135.22 228.852 134.437C228.236 133.653 227.981 132.648 228.087 131.42C228.193 130.193 228.617 129.246 229.359 128.579C230.091 127.912 231.085 127.632 232.34 127.741L234.683 127.944C235.939 128.052 236.874 128.499 237.49 129.283C238.097 130.066 238.347 131.071 238.241 132.299ZM236.595 132.156C236.655 131.468 236.501 130.916 236.134 130.5C235.767 130.084 235.249 129.848 234.58 129.79L232.125 129.577C231.455 129.519 230.904 129.664 230.471 130.01C230.039 130.357 229.792 130.874 229.733 131.562C229.674 132.241 229.828 132.793 230.194 133.218C230.561 133.634 231.079 133.871 231.748 133.929L234.203 134.141C234.873 134.199 235.424 134.055 235.857 133.708C236.29 133.352 236.536 132.835 236.595 132.156Z" fill="white"/>
<path d="M238.643 120.349L228.85 120.726L228.686 116.473C228.663 115.858 228.749 115.317 228.946 114.852C229.143 114.387 229.432 114.021 229.814 113.754C230.196 113.487 230.653 113.343 231.185 113.323L231.353 113.317C231.94 113.294 232.421 113.416 232.796 113.681C233.17 113.947 233.449 114.282 233.633 114.686L233.885 114.676C233.889 114.302 234.009 114.008 234.243 113.794C234.469 113.58 234.777 113.465 235.169 113.45L238.372 113.327L238.443 115.173L235.506 115.286C235.282 115.295 235.102 115.363 234.967 115.489C234.831 115.606 234.769 115.8 234.779 116.071L234.878 118.645L238.572 118.503L238.643 120.349ZM233.2 118.71L233.114 116.499C233.098 116.061 232.968 115.725 232.725 115.491C232.473 115.249 232.151 115.135 231.76 115.15L231.62 115.156C231.228 115.171 230.92 115.304 230.696 115.555C230.463 115.807 230.355 116.157 230.372 116.605L230.458 118.815L233.2 118.71Z" fill="white"/>
<path d="M238.007 104.462L229.989 105.747L230.441 108.567L228.782 108.833L227.586 101.369L229.244 101.103L229.697 103.923L237.714 102.638L238.007 104.462Z" fill="white"/>
<path d="M234.915 92.1578L225.484 94.8197L223.81 88.8914L225.427 88.4351L226.598 92.5849L228.876 91.9422L227.795 88.1158L229.412 87.6595L230.492 91.4859L234.413 90.3793L234.915 92.1578Z" fill="white"/>
<path d="M229.973 76.0306C230.448 77.1674 230.515 78.2011 230.176 79.1318C229.828 80.0661 229.072 80.776 227.91 81.2615L225.739 82.1677C224.576 82.6532 223.545 82.6895 222.644 82.2767C221.735 81.8674 221.043 81.0944 220.568 79.9576C220.093 78.8208 220.03 77.7852 220.378 76.8509C220.717 75.9203 221.469 75.2122 222.631 74.7267L224.802 73.8205C225.964 73.335 227 73.2968 227.91 73.7061C228.81 74.1189 229.498 74.8937 229.973 76.0306ZM228.449 76.6671C228.182 76.0298 227.79 75.6119 227.272 75.4134C226.755 75.215 226.186 75.2452 225.566 75.5041L223.292 76.4535C222.672 76.7124 222.25 77.0958 222.027 77.6035C221.804 78.1112 221.826 78.6838 222.092 79.3211C222.355 79.9498 222.747 80.3677 223.268 80.5747C223.786 80.7732 224.355 80.743 224.975 80.484L227.249 79.5347C227.869 79.2757 228.291 78.8924 228.514 78.3847C228.733 77.8683 228.711 77.2958 228.449 76.6671Z" fill="white"/>
<path d="M225.425 66.174L216.901 71.0094L215.989 69.4022L223.052 65.3957L220.841 61.4993L222.302 60.6704L225.425 66.174Z" fill="white"/>
<path d="M218.652 55.1162L210.623 60.7356L209.563 59.2218L217.592 53.6024L218.652 55.1162Z" fill="white"/>
<path d="M210.349 45.0386C211.156 45.9696 211.544 46.9302 211.513 47.9204C211.475 48.9167 210.979 49.8273 210.027 50.6524L208.249 52.1925C207.297 53.0175 206.329 53.375 205.344 53.2649C204.352 53.1609 203.453 52.6434 202.646 51.7124C201.839 50.7814 201.455 49.8177 201.493 48.8214C201.524 47.8313 202.016 46.9237 202.968 46.0986L204.746 44.5585C205.698 43.7334 206.67 43.3729 207.662 43.4769C208.646 43.587 209.542 44.1076 210.349 45.0386ZM209.101 46.1203C208.648 45.5984 208.145 45.3243 207.591 45.2979C207.037 45.2715 206.506 45.4783 205.998 45.9183L204.136 47.5318C203.628 47.9718 203.348 48.4678 203.295 49.0198C203.242 49.5718 203.442 50.1087 203.895 50.6306C204.341 51.1455 204.844 51.4197 205.404 51.4531C205.958 51.4795 206.489 51.2727 206.997 50.8326L208.859 49.2192C209.367 48.7792 209.647 48.2832 209.7 47.7312C209.747 47.1722 209.547 46.6352 209.101 46.1203Z" fill="white"/>
<path d="M195.797 30.4712L195.081 31.4041C194.667 31.9446 194.234 32.3243 193.783 32.5434C193.327 32.7698 192.844 32.8699 192.335 32.8438C191.813 32.8194 191.25 32.6937 190.648 32.4668L189.725 32.129C189.382 32.0076 189.07 31.9388 188.789 31.9227C188.501 31.9139 188.238 31.9651 188 32.0764C187.754 32.1819 187.541 32.3532 187.359 32.5901L187.325 32.6345C187.041 33.0047 186.942 33.3937 187.029 33.8016C187.11 34.2169 187.369 34.5922 187.806 34.9274C188.236 35.2569 188.675 35.4055 189.123 35.3731C189.558 35.3424 189.944 35.1087 190.279 34.6719L190.432 34.472L191.854 35.5628L191.718 35.7405C191.286 36.3032 190.793 36.6842 190.24 36.8834C189.687 37.0826 189.117 37.1211 188.528 36.9989C187.932 36.871 187.368 36.6025 186.834 36.1934C186.301 35.7844 185.9 35.3114 185.629 34.7746C185.353 34.2451 185.235 33.7016 185.275 33.1439C185.301 32.5879 185.505 32.0619 185.886 31.5658L185.971 31.4548C186.352 30.9587 186.779 30.6163 187.254 30.4274C187.715 30.2402 188.205 30.1691 188.724 30.214C189.237 30.2663 189.769 30.3926 190.321 30.5928L191.203 30.9161C191.595 31.0642 191.925 31.1472 192.194 31.1651C192.457 31.1904 192.679 31.1611 192.861 31.0772C193.03 30.9951 193.189 30.8578 193.337 30.6653L193.371 30.6208L189.183 27.4079L190.155 26.1418L195.797 30.4712Z" fill="white"/>
<path d="M181.014 20.4043C182.013 20.9891 182.654 21.7322 182.937 22.6335C183.216 23.5429 183.027 24.5573 182.371 25.6768L181.126 27.8029C180.489 28.8901 179.704 29.5388 178.769 29.7489C177.83 29.967 176.862 29.7836 175.863 29.1989C174.856 28.6094 174.222 27.8542 173.961 26.9335C173.687 26.016 173.869 25.0137 174.505 23.9264L175.751 21.8003C176.406 20.6808 177.199 20.0201 178.129 19.8181C179.045 19.6194 180.007 19.8148 181.014 20.4043ZM180.207 21.7815C179.603 21.4278 179.063 21.3335 178.588 21.4987C178.105 21.6591 177.684 22.0453 177.325 22.6574L176.009 24.9044C175.646 25.5245 175.534 26.0859 175.672 26.5887C175.797 27.0947 176.13 27.5057 176.669 27.8217C177.225 28.1471 177.757 28.2367 178.264 28.0904C178.764 27.9394 179.188 27.5659 179.537 26.9699L180.853 24.723C181.226 24.0868 181.362 23.5227 181.26 23.0308C181.146 22.5422 180.795 22.1258 180.207 21.7815Z" fill="white"/>
<path d="M171.745 14.8578L171.282 15.9387C171.013 16.5649 170.688 17.0397 170.305 17.3632C169.919 17.6953 169.476 17.9116 168.976 18.012C168.464 18.1174 167.888 18.1345 167.248 18.0634L166.27 17.9641C165.909 17.931 165.589 17.9414 165.312 17.9953C165.032 18.0578 164.79 18.1723 164.586 18.339C164.374 18.502 164.209 18.7207 164.092 18.9952L164.07 19.0467C163.886 19.4756 163.886 19.8769 164.071 20.2507C164.253 20.633 164.596 20.9327 165.102 21.1496C165.6 21.3629 166.062 21.3985 166.488 21.2563C166.903 21.1191 167.218 20.7974 167.435 20.2913L167.535 20.0597L169.182 20.7657L169.093 20.9716C168.814 21.6235 168.431 22.1143 167.944 22.4439C167.458 22.7735 166.914 22.9518 166.314 22.9787C165.704 23.002 165.091 22.8812 164.473 22.6165C163.856 22.3518 163.35 21.9927 162.955 21.5392C162.557 21.0943 162.308 20.5968 162.209 20.0465C162.097 19.5012 162.165 18.9412 162.411 18.3664L162.467 18.2378C162.713 17.663 163.043 17.2255 163.456 16.9253C163.857 16.63 164.314 16.4401 164.827 16.3556C165.337 16.2796 165.884 16.2705 166.469 16.3281L167.403 16.4237C167.82 16.4703 168.16 16.4691 168.425 16.4201C168.686 16.3797 168.894 16.2964 169.05 16.1702C169.193 16.0488 169.313 15.8767 169.409 15.6536L169.431 15.6022L164.58 13.5229L165.208 12.056L171.745 14.8578Z" fill="white"/>
<path d="M153.744 9.07206L153.186 10.9801L157.808 12.3317L157.227 14.3204L152.363 18.8787L149.273 17.9751L151.018 12.009L149.459 11.5533L149.907 10.0214L151.466 10.4772L152.024 8.56915L153.744 9.07206ZM155.721 13.3842L152.738 12.5119L151.315 17.3761L151.557 17.4469L155.658 13.5992L155.721 13.3842Z" fill="white"/>
<path d="M133.263 6.30806C133.635 6.34514 133.965 6.4672 134.254 6.67424C134.533 6.88036 134.751 7.14593 134.906 7.47094C135.052 7.79503 135.106 8.14746 135.068 8.52823C135.031 8.89972 134.914 9.22571 134.717 9.50622C134.51 9.79508 134.244 10.0125 133.92 10.1583C133.596 10.3042 133.244 10.3581 132.863 10.3201C132.473 10.2812 132.138 10.1587 131.858 9.95255C131.569 9.75479 131.355 9.49433 131.219 9.17117C131.072 8.85637 131.018 8.50394 131.057 8.11388C131.096 7.72382 131.224 7.38482 131.44 7.09688C131.646 6.8173 131.911 6.60458 132.235 6.45871C132.558 6.32213 132.901 6.27192 133.263 6.30806Z" fill="white"/>
</svg>
