<svg width="243" height="244" viewBox="0 0 243 244" fill="none" xmlns="http://www.w3.org/2000/svg">
<path d="M117.95 4.95678C118.705 4.92712 119.377 5.03616 119.966 5.28392C120.555 5.53167 121.023 5.90095 121.369 6.39174C121.715 6.88254 121.902 7.48233 121.93 8.19112L121.945 8.58282L120.127 8.65422L120.111 8.26252C120.088 7.67498 119.889 7.23912 119.514 6.95497C119.138 6.68014 118.638 6.55499 118.014 6.57953C117.379 6.60443 116.913 6.74882 116.616 7.01271C116.308 7.27697 116.162 7.60495 116.178 7.99664C116.188 8.2671 116.276 8.48315 116.441 8.6448C116.597 8.80681 116.826 8.93325 117.129 9.02412C117.422 9.12468 117.781 9.21336 118.204 9.29014L118.529 9.34745C119.206 9.4703 119.792 9.63412 120.285 9.83891C120.77 10.0534 121.15 10.342 121.426 10.7048C121.693 11.068 121.838 11.548 121.861 12.1449C121.884 12.7417 121.765 13.2555 121.501 13.6862C121.229 14.1265 120.841 14.4687 120.337 14.7126C119.824 14.9663 119.217 15.1069 118.518 15.1343C117.818 15.1618 117.193 15.0649 116.643 14.8437C116.084 14.6321 115.641 14.2946 115.314 13.831C114.979 13.3772 114.797 12.7958 114.769 12.0871L114.753 11.6674L116.571 11.596L116.588 12.0157C116.603 12.3887 116.689 12.6842 116.847 12.9022C116.996 13.1298 117.208 13.2896 117.482 13.3816C117.757 13.4829 118.081 13.5262 118.454 13.5116C119.014 13.4896 119.424 13.3661 119.686 13.1409C119.94 12.9255 120.059 12.6359 120.045 12.2722C120.035 12.0297 119.966 11.827 119.839 11.6638C119.701 11.5011 119.505 11.3687 119.249 11.2667C118.992 11.1647 118.667 11.0794 118.272 11.0108L117.947 10.9535C117.242 10.8317 116.628 10.6644 116.106 10.4513C115.575 10.2387 115.157 9.94687 114.853 9.57585C114.549 9.20483 114.385 8.72088 114.361 8.12401C114.338 7.52713 114.471 6.99416 114.761 6.5251C115.042 6.06573 115.457 5.69449 116.006 5.41139C116.547 5.13798 117.194 4.98644 117.95 4.95678Z" fill="black"/>
<path d="M101.947 6.70339C102.739 6.57575 103.444 6.60874 104.061 6.80237C104.671 7.00669 105.171 7.35158 105.561 7.83704C105.944 8.3332 106.194 8.94986 106.313 9.68702L107.324 15.9621L105.5 16.256L104.48 9.92561C104.385 9.33588 104.144 8.89727 103.757 8.60977C103.361 8.32375 102.845 8.23194 102.21 8.33436C101.574 8.43677 101.117 8.68516 100.841 9.07953C100.555 9.47538 100.459 9.96817 100.554 10.5579L101.574 16.8883L99.7497 17.1821L98.7386 10.9071C98.6198 10.1699 98.6686 9.50501 98.8851 8.91238C99.0939 8.33044 99.4602 7.84603 99.9839 7.45914C100.5 7.08295 101.154 6.83104 101.947 6.70339Z" fill="black"/>
<path d="M93.104 8.76917L95.8147 18.1868L94.0387 18.6978L92.9196 14.8097L89.4215 15.8162L90.5406 19.7043L88.7647 20.2153L86.054 10.7977L87.83 10.2867L88.9568 14.2017L92.4549 13.1952L91.328 9.28017L93.104 8.76917Z" fill="black"/>
<path d="M78.3019 13.5696L82.3182 22.5088L76.5712 25.09L75.8827 23.5575L79.9439 21.7335L78.9857 19.6008L75.2821 21.2643L74.5936 19.7319L78.2972 18.0684L77.3046 15.8591L73.1668 17.7176L72.4783 16.1852L78.3019 13.5696Z" fill="black"/>
<path d="M61.6839 21.5793L66.8893 29.8826L65.3234 30.8639L61.0104 23.9841L57.2142 26.3631L56.3219 24.9397L61.6839 21.5793Z" fill="black"/>
<path d="M50.3906 28.6403L56.5562 36.2577L55.1196 37.4202L52.671 34.395L52.4751 34.5535L52.4532 39.5777L50.6139 41.066L50.7531 34.7402L44.3394 33.5366L46.2331 32.0043L51.2596 33.0518L51.4555 32.8932L48.954 29.8028L50.3906 28.6403Z" fill="black"/>
<path d="M39.1965 37.8937L46.2622 44.6845L44.9814 46.0167L42.0643 43.213L39.5416 45.837L42.4587 48.6407L41.1779 49.9729L34.1122 43.1821L35.393 41.8499L38.3303 44.6729L40.853 42.0489L37.9157 39.2259L39.1965 37.8937Z" fill="black"/>
<path d="M29.5697 48.7457L35.8854 56.6691L33.96 59.2501L24.5637 55.4562L25.7022 53.9301L27.7486 54.7926L29.8415 51.9872L28.4313 50.2719L29.5697 48.7457ZM30.9511 53.3561L29.3773 55.4658L33.9159 57.3659L34.0666 57.164L30.9511 53.3561Z" fill="black"/>
<path d="M21.4815 61.468L29.8779 66.5219L28.0653 69.5323L19.7447 66.7954L19.6147 67.0113L26.9315 71.4153L25.9927 72.9745L17.5963 67.9207L19.4089 64.9102L27.7296 67.6472L27.8595 67.4313L20.5427 63.0272L21.4815 61.468Z" fill="black"/>
<path d="M8.14234 91.476L17.6699 93.7708L16.7255 97.6906C16.5812 98.2895 16.3319 98.7862 15.9776 99.1809C15.6301 99.5868 15.2081 99.8644 14.7113 100.014C14.2124 100.172 13.6634 100.179 13.0646 100.035L12.874 99.9886C12.2842 99.8466 11.7998 99.5859 11.4208 99.2066C11.0486 98.8385 10.7958 98.3936 10.6623 97.8719C10.5357 97.3614 10.5424 96.8158 10.6823 96.235L11.1938 94.1118L7.70948 93.2726L8.14234 91.476ZM12.8271 94.5052L12.3582 96.4515C12.2554 96.878 12.2903 97.2512 12.4628 97.5711C12.6354 97.8911 12.9258 98.1002 13.3341 98.1986L13.4702 98.2314C13.8785 98.3297 14.2324 98.2757 14.5317 98.0694C14.831 97.8631 15.032 97.5467 15.1348 97.1203L15.6037 95.174L12.8271 94.5052Z" fill="black"/>
<path d="M4.33887 108.959C4.47611 107.735 4.91919 106.798 5.6681 106.15C6.4263 105.502 7.43148 105.248 8.68364 105.389L11.021 105.651C12.2732 105.791 13.1926 106.26 13.7793 107.058C14.3753 107.858 14.6047 108.87 14.4675 110.094C14.3302 111.318 13.8825 112.254 13.1243 112.902C12.3754 113.551 11.3749 113.805 10.1227 113.664L7.78533 113.402C6.53317 113.262 5.60908 112.792 5.01309 111.993C4.42636 111.195 4.20162 110.183 4.33887 108.959ZM5.98059 109.143C5.90365 109.829 6.04329 110.385 6.3995 110.81C6.7557 111.235 7.26772 111.485 7.93554 111.56L10.3842 111.834C11.052 111.909 11.6067 111.779 12.0481 111.443C12.4896 111.107 12.7488 110.596 12.8257 109.91C12.9016 109.233 12.762 108.677 12.4068 108.243C12.0506 107.818 11.5386 107.568 10.8708 107.493L8.42212 107.219C7.7543 107.144 7.19966 107.274 6.7582 107.61C6.31569 107.955 6.05649 108.466 5.98059 109.143Z" fill="black"/>
<path d="M3.98847 120.924L13.7876 120.795L13.8437 125.051C13.8518 125.666 13.7515 126.205 13.5429 126.665C13.3343 127.125 13.0357 127.483 12.647 127.741C12.2584 127.998 11.7981 128.13 11.2661 128.137L11.0981 128.139C10.5102 128.147 10.0324 128.013 9.66472 127.738C9.29706 127.463 9.02653 127.121 8.85314 126.712L8.60116 126.716C8.58741 127.089 8.46057 127.38 8.22063 127.589C7.99002 127.797 7.67873 127.904 7.28677 127.909L4.08105 127.951L4.0567 126.103L6.99645 126.065C7.22043 126.062 7.40161 125.999 7.54 125.876C7.67851 125.762 7.74599 125.57 7.74242 125.299L7.70849 122.723L4.01281 122.772L3.98847 120.924ZM9.38834 122.701L9.41748 124.913C9.42326 125.351 9.5444 125.691 9.78091 125.93C10.0269 126.179 10.3458 126.301 10.7378 126.296L10.8778 126.294C11.2698 126.289 11.5808 126.163 11.8109 125.917C12.0504 125.672 12.1671 125.325 12.1612 124.877L12.1321 122.665L9.38834 122.701Z" fill="black"/>
<path d="M4.5253 136.826L12.5729 135.744L12.1923 132.913L13.8573 132.69L14.8649 140.182L13.1998 140.406L12.8192 137.576L4.77159 138.657L4.5253 136.826Z" fill="black"/>
<path d="M6.63528 148.135L16.1311 145.712L17.6544 151.681L16.0265 152.096L14.9602 147.918L12.6677 148.503L13.6508 152.355L12.023 152.771L11.0398 148.918L7.09225 149.925L6.63528 148.135Z" fill="black"/>
<path d="M11.4469 165.308C11.001 164.159 10.9595 163.124 11.3224 162.202C11.6941 161.277 12.4672 160.587 13.6419 160.131L15.8345 159.28C17.0091 158.824 18.0414 158.814 18.9314 159.249C19.83 159.681 20.5023 160.471 20.9482 161.62C21.3942 162.768 21.4313 163.805 21.0596 164.73C20.6967 165.652 19.9279 166.341 18.7533 166.797L16.5606 167.648C15.386 168.104 14.3494 168.116 13.4507 167.684C12.5608 167.248 11.8928 166.456 11.4469 165.308ZM12.9869 164.71C13.2369 165.354 13.6182 165.782 14.1309 165.993C14.6435 166.205 15.2131 166.189 15.8396 165.946L18.1366 165.054C18.763 164.811 19.1941 164.438 19.4297 163.936C19.6654 163.434 19.6582 162.862 19.4082 162.218C19.1616 161.583 18.7803 161.155 18.2642 160.935C17.7516 160.723 17.182 160.739 16.5556 160.982L14.2585 161.874C13.6321 162.117 13.201 162.489 12.9654 162.991C12.7332 163.502 12.7403 164.075 12.9869 164.71Z" fill="black"/>
<path d="M16.0489 175.154L24.6924 170.536L25.5635 172.165L18.4017 175.992L20.5135 179.943L19.0317 180.735L16.0489 175.154Z" fill="black"/>
<path d="M22.7945 186.231L30.9628 180.816L31.9841 182.357L23.8157 187.771L22.7945 186.231Z" fill="black"/>
<path d="M29.9942 197.389C29.2111 196.438 28.8476 195.468 28.9038 194.479C28.9671 193.484 29.4852 192.586 30.4581 191.786L32.2741 190.291C33.247 189.49 34.2242 189.157 35.2058 189.292C36.1946 189.421 37.0805 189.961 37.8636 190.913C38.6466 191.864 39.0065 192.837 38.9431 193.832C38.887 194.821 38.3725 195.716 37.3996 196.516L35.5836 198.011C34.6108 198.812 33.6299 199.148 32.6411 199.019C31.6596 198.884 30.7772 198.341 29.9942 197.389ZM31.2697 196.34C31.7087 196.873 32.2047 197.16 32.7578 197.2C33.3109 197.24 33.8469 197.047 34.3658 196.62L36.2683 195.054C36.7871 194.627 37.0799 194.138 37.1465 193.588C37.2132 193.037 37.027 192.496 36.588 191.962C36.155 191.436 35.6589 191.15 35.0999 191.102C34.5468 191.062 34.0108 191.255 33.4919 191.682L31.5894 193.248C31.0706 193.675 30.7778 194.164 30.7112 194.714C30.6505 195.272 30.8366 195.814 31.2697 196.34Z" fill="black"/>
<path d="M44.5816 210.948L45.321 210.034C45.7494 209.504 46.1915 209.135 46.6474 208.927C47.1091 208.713 47.5943 208.625 48.1029 208.664C48.6245 208.701 49.1836 208.841 49.78 209.083L50.6944 209.444C51.0334 209.574 51.3435 209.651 51.6247 209.674C51.9118 209.69 52.1759 209.646 52.417 209.541C52.6653 209.441 52.8833 209.275 53.0711 209.043L53.1063 209C53.3998 208.637 53.5081 208.25 53.4315 207.84C53.3608 207.423 53.1113 207.042 52.683 206.695C52.262 206.355 51.827 206.195 51.3779 206.216C50.9419 206.236 50.5508 206.46 50.2046 206.888L50.0461 207.084L48.6525 205.958L48.7933 205.784C49.2393 205.232 49.7412 204.864 50.299 204.678C50.8568 204.493 51.4284 204.469 52.0137 204.606C52.6062 204.749 53.1638 205.032 53.6865 205.454C54.2091 205.877 54.5988 206.36 54.8555 206.903C55.118 207.439 55.2224 207.986 55.1685 208.542C55.1277 209.097 54.9108 209.618 54.5176 210.104L54.4296 210.213C54.0364 210.7 53.6003 211.031 53.1213 211.208C52.6553 211.383 52.1638 211.442 51.6466 211.384C51.1352 211.319 50.6061 211.179 50.059 210.965L49.1862 210.619C48.7977 210.462 48.4695 210.37 48.2014 210.346C47.9392 210.314 47.716 210.337 47.5319 210.416C47.361 210.494 47.1992 210.628 47.0466 210.816L47.0114 210.86L51.1162 214.178L50.1127 215.419L44.5816 210.948Z" fill="black"/>
<path d="M59.2858 222.134C58.3022 221.524 57.6801 220.765 57.4197 219.857C57.1642 218.94 57.3783 217.931 58.0621 216.829L59.3608 214.735C60.0249 213.664 60.8266 213.035 61.7659 212.849C62.7101 212.655 63.674 212.862 64.6576 213.472C65.6492 214.087 66.2638 214.858 66.5015 215.785C66.7521 216.709 66.5454 217.707 65.8813 218.777L64.5826 220.871C63.8988 221.974 63.0897 222.614 62.1554 222.793C61.2339 222.968 60.2773 222.748 59.2858 222.134ZM60.127 220.777C60.7219 221.146 61.259 221.254 61.7384 221.101C62.2256 220.953 62.6562 220.577 63.03 219.975L64.4025 217.762C64.7813 217.151 64.908 216.593 64.7825 216.086C64.6699 215.577 64.3479 215.158 63.8164 214.829C63.2691 214.489 62.7399 214.386 62.2288 214.52C61.7257 214.658 61.2921 215.021 60.9281 215.608L59.5556 217.82C59.167 218.447 59.0171 219.008 59.1059 219.502C59.2076 219.993 59.5479 220.418 60.127 220.777Z" fill="black"/>
<path d="M68.5914 227.637L69.082 226.568C69.3662 225.949 69.7036 225.483 70.0941 225.169C70.4885 224.847 70.9369 224.642 71.4393 224.554C71.9541 224.462 72.5304 224.459 73.1681 224.546L74.1433 224.67C74.5039 224.713 74.8233 224.71 75.1016 224.663C75.3838 224.608 75.6286 224.5 75.8363 224.338C76.0524 224.181 76.2227 223.966 76.3473 223.695L76.3707 223.644C76.5654 223.22 76.575 222.819 76.3995 222.44C76.2279 222.053 75.8918 221.745 75.3913 221.515C74.8993 221.29 74.4383 221.242 74.0083 221.374C73.5907 221.5 73.2671 221.814 73.0373 222.314L72.9322 222.544L71.3035 221.796L71.397 221.593C71.6929 220.948 72.0882 220.467 72.583 220.15C73.0778 219.833 73.6257 219.668 74.2267 219.656C74.8363 219.648 75.4464 219.785 76.0572 220.065C76.6679 220.345 77.1648 220.717 77.5478 221.18C77.9346 221.635 78.1707 222.139 78.2559 222.691C78.3536 223.239 78.2719 223.797 78.0111 224.366L77.9527 224.493C77.6918 225.061 77.3511 225.49 76.9305 225.78C76.5224 226.065 76.0606 226.243 75.5451 226.315C75.0335 226.378 74.4862 226.373 73.9032 226.301L72.9721 226.182C72.5567 226.125 72.2161 226.117 71.9502 226.159C71.6882 226.193 71.4778 226.271 71.319 226.393C71.1725 226.511 71.0487 226.68 70.9475 226.901L70.9241 226.952L75.7211 229.153L75.0553 230.603L68.5914 227.637Z" fill="black"/>
<path d="M86.5456 234.573L87.1518 232.68L82.565 231.212L83.1967 229.238L88.1737 224.804L91.2405 225.786L89.3451 231.706L90.8918 232.201L90.4052 233.721L88.8585 233.226L88.2523 235.119L86.5456 234.573ZM84.6783 230.212L87.6384 231.16L89.1837 226.333L88.9437 226.256L84.7466 229.999L84.6783 230.212Z" fill="black"/>
<path d="M107.082 237.351C106.712 237.304 106.385 237.174 106.101 236.96C105.827 236.746 105.616 236.475 105.47 236.147C105.332 235.819 105.287 235.465 105.335 235.086C105.381 234.715 105.506 234.392 105.71 234.117C105.924 233.833 106.195 233.623 106.523 233.485C106.851 233.347 107.204 233.302 107.584 233.35C107.973 233.399 108.305 233.53 108.579 233.743C108.864 233.948 109.07 234.214 109.199 234.54C109.337 234.859 109.382 235.212 109.334 235.601C109.285 235.99 109.149 236.326 108.925 236.608C108.712 236.882 108.441 237.088 108.114 237.226C107.787 237.354 107.443 237.396 107.082 237.351Z" fill="black"/>
<path d="M128.062 239.539C127.308 239.588 126.633 239.496 126.038 239.263C125.444 239.03 124.967 238.673 124.608 238.191C124.25 237.709 124.048 237.114 124.002 236.406L123.977 236.015L125.793 235.898L125.818 236.289C125.856 236.876 126.066 237.306 126.449 237.581C126.831 237.846 127.334 237.959 127.958 237.918C128.591 237.877 129.053 237.721 129.344 237.45C129.645 237.178 129.782 236.846 129.757 236.455C129.74 236.185 129.646 235.971 129.477 235.814C129.317 235.656 129.085 235.535 128.78 235.452C128.484 235.359 128.124 235.279 127.699 235.213L127.373 235.164C126.693 235.059 126.103 234.91 125.604 234.717C125.114 234.515 124.727 234.236 124.442 233.881C124.166 233.524 124.009 233.048 123.971 232.452C123.932 231.856 124.039 231.339 124.291 230.902C124.553 230.455 124.932 230.103 125.43 229.847C125.936 229.58 126.539 229.424 127.237 229.379C127.936 229.334 128.563 229.415 129.119 229.622C129.684 229.82 130.135 230.146 130.473 230.601C130.82 231.046 131.016 231.623 131.062 232.331L131.089 232.75L129.273 232.867L129.246 232.448C129.221 232.075 129.128 231.782 128.964 231.568C128.809 231.344 128.594 231.19 128.317 231.105C128.04 231.011 127.715 230.976 127.342 231C126.783 231.036 126.376 231.17 126.119 231.401C125.872 231.623 125.76 231.916 125.783 232.279C125.799 232.521 125.873 232.722 126.005 232.882C126.146 233.041 126.346 233.168 126.605 233.264C126.863 233.359 127.191 233.436 127.588 233.495L127.913 233.544C128.622 233.648 129.239 233.8 129.767 234C130.303 234.199 130.728 234.48 131.042 234.843C131.355 235.206 131.531 235.686 131.57 236.282C131.608 236.878 131.489 237.414 131.211 237.89C130.942 238.357 130.536 238.738 129.994 239.035C129.461 239.322 128.817 239.49 128.062 239.539Z" fill="black"/>
<path d="M144.046 237.741C143.257 237.889 142.552 237.874 141.93 237.696C141.315 237.507 140.807 237.175 140.404 236.7C140.009 236.213 139.743 235.603 139.606 234.869L138.436 228.622L140.253 228.282L141.433 234.584C141.542 235.171 141.794 235.604 142.188 235.881C142.591 236.157 143.109 236.236 143.742 236.118C144.375 235.999 144.825 235.739 145.092 235.338C145.368 234.935 145.451 234.44 145.341 233.853L144.161 227.55L145.977 227.21L147.147 233.458C147.284 234.192 147.252 234.858 147.051 235.456C146.857 236.043 146.503 236.536 145.989 236.936C145.483 237.325 144.835 237.594 144.046 237.741Z" fill="black"/>
<path d="M152.888 235.73L149.94 226.384L151.702 225.828L152.919 229.687L156.391 228.592L155.174 224.733L156.936 224.178L159.884 233.524L158.122 234.079L156.896 230.194L153.425 231.289L154.65 235.174L152.888 235.73Z" fill="black"/>
<path d="M167.669 230.884L163.428 222.049L169.108 219.323L169.835 220.838L165.821 222.764L166.833 224.872L170.493 223.115L171.22 224.63L167.56 226.386L168.608 228.57L172.697 226.607L173.424 228.122L167.669 230.884Z" fill="black"/>
<path d="M183.262 222.833L177.848 214.664L179.389 213.643L183.874 220.412L187.609 217.938L188.537 219.338L183.262 222.833Z" fill="black"/>
<path d="M194.528 213.742L188.171 206.283L189.578 205.085L192.103 208.047L192.294 207.884L192.189 202.86L193.99 201.326L194.011 207.653L200.453 208.694L198.599 210.274L193.547 209.354L193.356 209.518L195.934 212.544L194.528 213.742Z" fill="black"/>
<path d="M205.689 204.459L198.454 197.849L199.701 196.485L202.688 199.214L205.144 196.527L202.156 193.798L203.403 192.433L210.638 199.043L209.392 200.408L206.384 197.66L203.928 200.347L206.936 203.095L205.689 204.459Z" fill="black"/>
<path d="M217.119 191.349C216.834 191.753 216.509 192.067 216.146 192.29C215.775 192.507 215.388 192.617 214.987 192.619C214.583 192.608 214.187 192.465 213.798 192.19C213.41 191.915 213.15 191.595 213.021 191.229C212.889 190.85 212.874 190.45 212.976 190.031C213.076 189.599 213.277 189.169 213.579 188.743L214.678 187.188L214.358 186.962C214.091 186.773 213.815 186.704 213.529 186.753C213.235 186.796 212.959 187.001 212.7 187.367C212.447 187.725 212.342 188.051 212.385 188.345C212.422 188.633 212.55 188.896 212.772 189.132L211.388 190.143C211.163 189.847 211.003 189.516 210.906 189.151C210.808 188.773 210.805 188.365 210.897 187.927C210.988 187.476 211.205 187.007 211.55 186.52C212.078 185.773 212.683 185.314 213.363 185.144C214.044 184.974 214.739 185.139 215.447 185.64L217.562 187.136C217.791 187.297 217.98 187.271 218.131 187.058L218.455 186.601L219.644 187.442L218.964 188.402C218.765 188.684 218.532 188.868 218.266 188.953C217.999 189.039 217.751 189.001 217.523 188.84L217.511 188.832L217.358 189.049C217.428 189.144 217.501 189.299 217.578 189.513C217.647 189.722 217.658 189.981 217.611 190.291C217.564 190.6 217.4 190.953 217.119 191.349ZM216.131 190.273C216.417 189.87 216.538 189.464 216.495 189.056C216.45 188.635 216.24 188.293 215.867 188.029L215.753 187.948L214.726 189.4C214.537 189.666 214.446 189.916 214.453 190.15C214.459 190.383 214.565 190.572 214.771 190.718C214.977 190.863 215.201 190.902 215.444 190.833C215.687 190.765 215.916 190.578 216.131 190.273Z" fill="black"/>
<path d="M223.338 181.84L214.816 177L216.552 173.944L224.939 176.47L225.064 176.251L217.638 172.033L218.537 170.451L227.059 175.291L225.323 178.346L216.936 175.821L216.811 176.04L224.237 180.257L223.338 181.84Z" fill="black"/>
<path d="M235.576 150.8L225.993 148.747L226.838 144.805C226.967 144.202 227.204 143.699 227.548 143.296C227.885 142.881 228.3 142.593 228.793 142.432C229.288 142.261 229.836 142.24 230.439 142.369L230.63 142.41C231.223 142.537 231.714 142.785 232.103 143.155C232.484 143.514 232.748 143.952 232.895 144.47C233.034 144.977 233.041 145.523 232.916 146.107L232.458 148.242L235.963 148.993L235.576 150.8ZM230.816 147.891L231.235 145.933C231.327 145.504 231.283 145.132 231.102 144.816C230.922 144.501 230.626 144.299 230.215 144.211L230.079 144.182C229.668 144.094 229.316 144.157 229.022 144.371C228.728 144.584 228.535 144.906 228.443 145.335L228.023 147.292L230.816 147.891Z" fill="black"/>
<path d="M238.241 133.299C238.135 134.526 237.716 135.473 236.983 136.141C236.242 136.807 235.243 137.086 233.988 136.978L231.645 136.775C230.389 136.666 229.458 136.22 228.852 135.437C228.236 134.653 227.981 133.648 228.087 132.42C228.193 131.193 228.617 130.246 229.359 129.579C230.091 128.912 231.085 128.632 232.34 128.741L234.683 128.944C235.939 129.052 236.874 129.499 237.49 130.283C238.097 131.066 238.347 132.071 238.241 133.299ZM236.595 133.156C236.655 132.468 236.501 131.916 236.134 131.5C235.767 131.084 235.249 130.848 234.58 130.79L232.125 130.577C231.455 130.519 230.904 130.664 230.471 131.01C230.039 131.357 229.792 131.874 229.733 132.562C229.674 133.241 229.828 133.793 230.194 134.218C230.561 134.634 231.079 134.871 231.748 134.929L234.203 135.141C234.873 135.199 235.424 135.055 235.857 134.708C236.29 134.352 236.536 133.835 236.595 133.156Z" fill="black"/>
<path d="M238.643 121.349L228.85 121.726L228.686 117.473C228.663 116.858 228.749 116.317 228.946 115.852C229.143 115.387 229.432 115.021 229.814 114.754C230.196 114.487 230.653 114.343 231.185 114.323L231.353 114.317C231.94 114.294 232.421 114.416 232.796 114.681C233.17 114.947 233.449 115.282 233.633 115.686L233.885 115.676C233.889 115.302 234.009 115.008 234.243 114.794C234.469 114.58 234.777 114.465 235.169 114.45L238.372 114.327L238.443 116.173L235.506 116.286C235.282 116.295 235.102 116.363 234.967 116.489C234.831 116.606 234.769 116.8 234.779 117.071L234.878 119.645L238.572 119.503L238.643 121.349ZM233.2 119.71L233.114 117.499C233.098 117.061 232.968 116.725 232.725 116.491C232.473 116.249 232.151 116.135 231.76 116.15L231.62 116.156C231.228 116.171 230.92 116.304 230.696 116.555C230.463 116.807 230.355 117.157 230.372 117.605L230.458 119.815L233.2 119.71Z" fill="black"/>
<path d="M238.007 105.462L229.989 106.747L230.441 109.567L228.782 109.833L227.586 102.369L229.244 102.103L229.697 104.923L237.714 103.638L238.007 105.462Z" fill="black"/>
<path d="M234.915 93.1578L225.484 95.8197L223.81 89.8914L225.427 89.4351L226.598 93.5849L228.876 92.9422L227.795 89.1158L229.412 88.6595L230.492 92.4859L234.413 91.3793L234.915 93.1578Z" fill="black"/>
<path d="M229.973 77.0306C230.448 78.1674 230.515 79.2011 230.176 80.1318C229.828 81.0661 229.072 81.776 227.91 82.2615L225.739 83.1677C224.576 83.6532 223.545 83.6895 222.644 83.2767C221.735 82.8674 221.043 82.0944 220.568 80.9576C220.093 79.8208 220.03 78.7852 220.378 77.8509C220.717 76.9203 221.469 76.2122 222.631 75.7267L224.802 74.8205C225.964 74.335 227 74.2968 227.91 74.7061C228.81 75.1189 229.498 75.8937 229.973 77.0306ZM228.449 77.6671C228.182 77.0298 227.79 76.6119 227.272 76.4134C226.755 76.215 226.186 76.2452 225.566 76.5041L223.292 77.4535C222.672 77.7124 222.25 78.0958 222.027 78.6035C221.804 79.1112 221.826 79.6838 222.092 80.3211C222.355 80.9498 222.747 81.3677 223.268 81.5747C223.786 81.7732 224.355 81.743 224.975 81.484L227.249 80.5347C227.869 80.2757 228.291 79.8924 228.514 79.3847C228.733 78.8683 228.711 78.2958 228.449 77.6671Z" fill="black"/>
<path d="M225.425 67.174L216.901 72.0094L215.989 70.4022L223.052 66.3957L220.841 62.4993L222.302 61.6704L225.425 67.174Z" fill="black"/>
<path d="M218.652 56.1162L210.623 61.7356L209.563 60.2218L217.592 54.6024L218.652 56.1162Z" fill="black"/>
<path d="M210.349 46.0386C211.156 46.9696 211.544 47.9302 211.513 48.9204C211.475 49.9167 210.979 50.8273 210.027 51.6524L208.249 53.1925C207.297 54.0175 206.329 54.375 205.344 54.2649C204.352 54.1609 203.453 53.6434 202.646 52.7124C201.839 51.7814 201.455 50.8177 201.493 49.8214C201.524 48.8313 202.016 47.9237 202.968 47.0986L204.746 45.5585C205.698 44.7334 206.67 44.3729 207.662 44.4769C208.646 44.587 209.542 45.1076 210.349 46.0386ZM209.101 47.1203C208.648 46.5984 208.145 46.3243 207.591 46.2979C207.037 46.2715 206.506 46.4783 205.998 46.9183L204.136 48.5318C203.628 48.9718 203.348 49.4678 203.295 50.0198C203.242 50.5718 203.442 51.1087 203.895 51.6306C204.341 52.1455 204.844 52.4197 205.404 52.4531C205.958 52.4795 206.489 52.2727 206.997 51.8326L208.859 50.2192C209.367 49.7792 209.647 49.2832 209.7 48.7312C209.747 48.1722 209.547 47.6352 209.101 47.1203Z" fill="black"/>
<path d="M195.797 31.4712L195.081 32.4041C194.667 32.9446 194.234 33.3243 193.783 33.5434C193.327 33.7698 192.844 33.8699 192.335 33.8438C191.813 33.8194 191.25 33.6937 190.648 33.4668L189.725 33.129C189.382 33.0076 189.07 32.9388 188.789 32.9227C188.501 32.9139 188.238 32.9651 188 33.0764C187.754 33.1819 187.541 33.3532 187.359 33.5901L187.325 33.6345C187.041 34.0047 186.942 34.3937 187.029 34.8016C187.11 35.2169 187.369 35.5922 187.806 35.9274C188.236 36.2569 188.675 36.4055 189.123 36.3731C189.558 36.3424 189.944 36.1087 190.279 35.6719L190.432 35.472L191.854 36.5628L191.718 36.7405C191.286 37.3032 190.793 37.6842 190.24 37.8834C189.687 38.0826 189.117 38.1211 188.528 37.9989C187.932 37.871 187.368 37.6025 186.834 37.1934C186.301 36.7844 185.9 36.3114 185.629 35.7746C185.353 35.2451 185.235 34.7016 185.275 34.1439C185.301 33.5879 185.505 33.0619 185.886 32.5658L185.971 32.4548C186.352 31.9587 186.779 31.6163 187.254 31.4274C187.715 31.2402 188.205 31.1691 188.724 31.214C189.237 31.2663 189.769 31.3926 190.321 31.5928L191.203 31.9161C191.595 32.0642 191.925 32.1472 192.194 32.1651C192.457 32.1904 192.679 32.1611 192.861 32.0772C193.03 31.9951 193.189 31.8578 193.337 31.6653L193.371 31.6208L189.183 28.4079L190.155 27.1418L195.797 31.4712Z" fill="black"/>
<path d="M181.014 21.4043C182.013 21.9891 182.654 22.7322 182.937 23.6335C183.216 24.5429 183.027 25.5573 182.371 26.6768L181.126 28.8029C180.489 29.8901 179.704 30.5388 178.769 30.7489C177.83 30.967 176.862 30.7836 175.863 30.1989C174.856 29.6094 174.222 28.8542 173.961 27.9335C173.687 27.016 173.869 26.0137 174.505 24.9264L175.751 22.8003C176.406 21.6808 177.199 21.0201 178.129 20.8181C179.045 20.6194 180.007 20.8148 181.014 21.4043ZM180.207 22.7815C179.603 22.4278 179.063 22.3335 178.588 22.4987C178.105 22.6591 177.684 23.0453 177.325 23.6574L176.009 25.9044C175.646 26.5245 175.534 27.0859 175.672 27.5887C175.797 28.0947 176.13 28.5057 176.669 28.8217C177.225 29.1471 177.757 29.2367 178.264 29.0904C178.764 28.9394 179.188 28.5659 179.537 27.9699L180.853 25.723C181.226 25.0868 181.362 24.5227 181.26 24.0308C181.146 23.5422 180.795 23.1258 180.207 22.7815Z" fill="black"/>
<path d="M171.745 15.8578L171.282 16.9387C171.013 17.5649 170.688 18.0397 170.305 18.3632C169.919 18.6953 169.476 18.9116 168.976 19.012C168.464 19.1174 167.888 19.1345 167.248 19.0634L166.27 18.9641C165.909 18.931 165.589 18.9414 165.312 18.9953C165.032 19.0578 164.79 19.1723 164.586 19.339C164.374 19.502 164.209 19.7207 164.092 19.9952L164.07 20.0467C163.886 20.4756 163.886 20.8769 164.071 21.2507C164.253 21.633 164.596 21.9327 165.102 22.1496C165.6 22.3629 166.062 22.3985 166.488 22.2563C166.903 22.1191 167.218 21.7974 167.435 21.2913L167.535 21.0597L169.182 21.7657L169.093 21.9716C168.814 22.6235 168.431 23.1143 167.944 23.4439C167.458 23.7735 166.914 23.9518 166.314 23.9787C165.704 24.002 165.091 23.8812 164.473 23.6165C163.856 23.3518 163.35 22.9927 162.955 22.5392C162.557 22.0943 162.308 21.5968 162.209 21.0465C162.097 20.5012 162.165 19.9412 162.411 19.3664L162.467 19.2378C162.713 18.663 163.043 18.2255 163.456 17.9253C163.857 17.63 164.314 17.4401 164.827 17.3556C165.337 17.2796 165.884 17.2705 166.469 17.3281L167.403 17.4237C167.82 17.4703 168.16 17.4691 168.425 17.4201C168.686 17.3797 168.894 17.2964 169.05 17.1702C169.193 17.0488 169.313 16.8767 169.409 16.6536L169.431 16.6022L164.58 14.5229L165.208 13.056L171.745 15.8578Z" fill="black"/>
<path d="M153.744 10.0721L153.186 11.9801L157.808 13.3317L157.227 15.3204L152.363 19.8787L149.273 18.9751L151.018 13.009L149.459 12.5533L149.907 11.0214L151.466 11.4772L152.024 9.56915L153.744 10.0721ZM155.721 14.3842L152.738 13.5119L151.315 18.3761L151.557 18.4469L155.658 14.5992L155.721 14.3842Z" fill="black"/>
<path d="M133.263 7.30806C133.635 7.34514 133.965 7.4672 134.254 7.67424C134.533 7.88036 134.751 8.14593 134.906 8.47094C135.052 8.79503 135.106 9.14746 135.068 9.52823C135.031 9.89972 134.914 10.2257 134.717 10.5062C134.51 10.7951 134.244 11.0125 133.92 11.1583C133.596 11.3042 133.244 11.3581 132.863 11.3201C132.473 11.2812 132.138 11.1587 131.858 10.9525C131.569 10.7548 131.355 10.4943 131.219 10.1712C131.072 9.85637 131.018 9.50394 131.057 9.11388C131.096 8.72382 131.224 8.38482 131.44 8.09688C131.646 7.8173 131.911 7.60458 132.235 7.45871C132.558 7.32213 132.901 7.27192 133.263 7.30806Z" fill="black"/>
</svg>
