<svg xmlns="http://www.w3.org/2000/svg" viewBox="0 0 48 48"><defs><style>.cls-1{fill:#42a5f5;}.cls-2{fill:#424242;}</style></defs><title>Bot</title><g id="Bot"><path class="cls-1" d="M10,16H8a3,3,0,0,0-3,3v6a3,3,0,0,0,3,3h2a1,1,0,0,0,1-1V17A1,1,0,0,0,10,16Z"/><path class="cls-1" d="M40,16H38a1,1,0,0,0-1,1V27a1,1,0,0,0,1,1h2a3,3,0,0,0,3-3V19A3,3,0,0,0,40,16Z"/><path class="cls-1" d="M33,16H15a2,2,0,0,0-2,2v8a2,2,0,0,0,2,2H33a2,2,0,0,0,2-2V18A2,2,0,0,0,33,16ZM18,22a2,2,0,1,1,2-2A2,2,0,0,1,18,22Zm8,4H22a1,1,0,0,1,0-2h4A1,1,0,0,1,26,26Zm4-4a2,2,0,1,1,2-2A2,2,0,0,1,30,22Z"/><path class="cls-1" d="M13,34v7.33L17,48H31l4-6.67V34Zm14,9H21a2,2,0,0,1,0-4h6a2,2,0,0,1,0,4Z"/><path class="cls-2" d="M42.5,38.13C34.91,33.8,35.38,34,35,34H29.78l-.5-2H34a5,5,0,0,0,5-5V17a5,5,0,0,0-3-4.58V5.22a3,3,0,1,0-4.38-.41L30.18,12H17.82L16.38,4.81A3,3,0,1,0,12,5.22v7.2A5,5,0,0,0,9,17V27a5,5,0,0,0,5,5h4.72l-.5,2c-5.63,0-5.39,0-5.72.13C4.93,38.46,5,38.21,5,39v8a1,1,0,0,0,1,1H42a1,1,0,0,0,1-1C43,38.29,43.18,38.52,42.5,38.13ZM34,2a1,1,0,0,1,0,2A1,1,0,0,1,34,2Zm-.57,3.94A2.76,2.76,0,0,0,34,6v6H32.22ZM14,2a1,1,0,0,1,0,2A1,1,0,0,1,14,2Zm1.78,10H14V6a2.76,2.76,0,0,0,.57-.06ZM14,30a3,3,0,0,1-3-3V17a3,3,0,0,1,3-3H34a3,3,0,0,1,3,3V27a3,3,0,0,1-3,3Zm6.78,2h6.44l.5,2H20.28ZM41,46H7V39.58L13.27,36H34.73L41,39.58Z"/></g></svg>