<svg width="32" height="32" viewBox="0 0 32 32" fill="none" xmlns="http://www.w3.org/2000/svg">
<mask id="mask0_2645_25884" style="mask-type:luminance" maskUnits="userSpaceOnUse" x="2" y="1" width="29" height="30">
<path d="M29.3312 12.5372C31.1522 14.4409 31.1522 17.5591 29.3312 19.4628L19.6609 29.5722C17.8398 31.4759 14.8571 31.4759 13.0361 29.5722L3.36577 19.4628C1.54474 17.5591 1.54474 14.4409 3.36577 12.5372L13.0361 2.42779C14.8571 0.52407 17.8398 0.52407 19.6609 2.42779L29.3312 12.5372Z" fill="white"/>
</mask>
<g mask="url(#mask0_2645_25884)">
<path d="M29.739 18.9366L18.75 7.44868L21.5757 4.49463L32.5647 15.9826L29.739 18.9366Z" fill="#22AA48"/>
<path d="M16.3318 5.02113L13.5061 2.06709L16.3318 -0.886963L19.1576 2.06709L16.3318 5.02113Z" fill="#22AA48"/>
<path d="M27.2899 21.497L24.4328 18.5429L16.3637 26.9784L5.87711 15.8514L13.8834 7.48164L11.0576 4.52759L3.05137 12.8646L3.01998 12.8317L0.162842 15.7858L16.3637 32.9521L19.1895 29.9981V29.9652L27.2899 21.497Z" fill="#0073A4"/>
</g>
</svg>
