<svg width="27" height="26" viewBox="0 0 27 26" fill="none" xmlns="http://www.w3.org/2000/svg">
<path d="M4.38428 25.3777L13.3891 8.29321L22.3932 25.3777H13.3891H4.38428Z" fill="url(#paint0_linear_5954_19343)"/>
<path d="M13.3892 8.29321L22.3933 25.3777H13.3892V8.29321Z" fill="url(#paint1_linear_5954_19343)"/>
<path d="M7.31885 19.8104L13.3893 8.29321L19.459 19.8104L13.3893 16.6286L7.31885 19.8104Z" fill="white"/>
<path d="M10.3617 2.5498L0.404138 21.139C0.139672 21.5768 -0.000214463 22.0804 2.46794e-07 22.5941C2.46794e-07 24.105 1.2529 25.3777 2.74034 25.3777H4.3844L13.3893 8.27774L10.3617 2.5498Z" fill="url(#paint2_linear_5954_19343)"/>
<path d="M26.7779 22.594C26.7783 22.0805 26.6387 21.5768 26.3745 21.1389L17.7899 5.11223C17.7899 5.11223 17.7188 4.98108 17.6959 4.93684C13.3894 -3.09592 10.3618 2.54975 10.3618 2.54975L22.3935 25.3777H24.1162C25.6037 25.3777 26.7779 24.1042 26.7779 22.594Z" fill="url(#paint3_linear_5954_19343)"/>
<defs>
<linearGradient id="paint0_linear_5954_19343" x1="4.38428" y1="16.8351" x2="22.3932" y2="16.8351" gradientUnits="userSpaceOnUse">
<stop stop-color="#175ECA"/>
<stop offset="1" stop-color="#3B9FF4"/>
</linearGradient>
<linearGradient id="paint1_linear_5954_19343" x1="13.3892" y1="16.8351" x2="22.3933" y2="16.8351" gradientUnits="userSpaceOnUse">
<stop stop-color="#175ECA"/>
<stop offset="0.86" stop-color="#175ECA"/>
<stop offset="1" stop-color="#175ECA"/>
</linearGradient>
<linearGradient id="paint2_linear_5954_19343" x1="2.47362e-07" y1="13.9638" x2="13.3893" y2="13.9638" gradientUnits="userSpaceOnUse">
<stop stop-color="#05A9F4"/>
<stop offset="1" stop-color="#4CC8F2"/>
</linearGradient>
<linearGradient id="paint3_linear_5954_19343" x1="10.8057" y1="12.9999" x2="26.5739" y2="12.9999" gradientUnits="userSpaceOnUse">
<stop stop-color="#05A9F4"/>
<stop offset="1" stop-color="#175ECA"/>
</linearGradient>
</defs>
</svg>
