<svg width="166" height="166" viewBox="0 0 166 166" fill="none" xmlns="http://www.w3.org/2000/svg">
<g clip-path="url(#clip0_2_423)">
<mask id="mask0_2_423" style="mask-type:luminance" maskUnits="userSpaceOnUse" x="0" y="0" width="166" height="166">
<path d="M166 0H0V166H166V0Z" fill="white"/>
</mask>
<g mask="url(#mask0_2_423)">
<path d="M142.113 122.763V142.923L129.766 131.555V122.763C129.766 109.884 122.294 98.7073 111.458 93.3498C107.094 91.1854 102.169 89.972 96.9816 89.972H69.0157C68.3558 89.972 67.6816 89.9578 67.0217 89.9294C62.544 89.7307 58.2437 88.8792 54.1989 87.467C53.5745 87.2542 52.9713 87.02 52.3681 86.7858C50.2464 85.9414 48.2098 84.9337 46.2655 83.7983C44.5269 82.7836 42.8735 81.6482 41.2982 80.4206C40.8795 80.0942 40.475 79.7606 40.0634 79.4271C30.1856 71.1388 23.8984 58.7064 23.8984 44.8334V24.6875L36.2457 36.311V44.8334C36.2457 57.72 43.718 68.8894 54.5467 74.2469C58.9179 76.4113 63.8355 77.6247 69.0228 77.6247H96.9887C97.6699 77.6247 98.3298 77.6389 98.9969 77.6744C103.46 77.866 107.768 78.7175 111.805 80.1296H111.813C112.43 80.3425 113.04 80.5767 113.643 80.818C115.765 81.6553 117.802 82.663 119.746 83.8054C121.47 84.8131 123.138 85.9485 124.713 87.1761C125.125 87.5025 125.536 87.836 125.941 88.1767C135.826 96.465 142.113 108.89 142.113 122.763Z" fill="#138094"/>
<path d="M142.114 24.694V44.847C142.114 58.0601 136.409 69.9603 127.325 78.2273C126.297 77.5248 125.246 76.8577 124.182 76.2333C121.84 74.8566 119.385 73.6574 116.88 72.6639L115.319 72.0465H115.269C124.012 66.1497 129.767 56.1654 129.767 44.8541V37.0484H121.961C109.074 37.0484 97.9049 44.5206 92.5473 55.3564C90.5178 59.4509 89.3256 64.0279 89.1837 68.8675H76.8364C76.8364 68.5552 76.8506 68.2501 76.8648 67.9379C76.8648 67.9024 76.8648 67.8669 76.8648 67.8385C77.0564 63.368 77.908 59.0606 79.3201 55.0158C79.533 54.3984 79.7601 53.7811 80.0013 53.1779C80.8458 51.0562 81.8463 49.0125 82.9888 47.0681C84.0035 45.3367 85.1318 43.6833 86.3595 42.1079C86.6859 41.6893 87.0194 41.2848 87.3529 40.8732C87.8 40.341 88.2612 39.8159 88.7367 39.2979C96.9895 30.3283 108.826 24.694 121.947 24.694H142.1H142.114ZM76.8152 98.7564C76.6732 103.589 75.4811 108.166 73.4516 112.267C68.1011 123.103 56.9247 130.576 44.0452 130.576H36.2394V122.77C36.2394 111.459 42.0015 101.467 50.7439 95.5702C50.1975 95.3787 49.6511 95.1729 49.1118 94.9529C46.614 93.9594 44.1658 92.7531 41.817 91.3835C40.7526 90.7591 39.7094 90.0991 38.6805 89.3895C29.5974 97.6494 23.8921 109.557 23.8921 122.77V142.923H44.0452C57.1659 142.923 69.0023 137.296 77.2551 128.319C77.7306 127.808 78.1918 127.283 78.6389 126.744C78.9724 126.339 79.3059 125.928 79.6323 125.509C80.8671 123.934 81.9882 122.28 83.003 120.549C84.1455 118.604 85.146 116.561 85.9905 114.439C86.2317 113.829 86.4588 113.218 86.6717 112.601C88.0838 108.556 88.9354 104.249 89.127 99.7783C89.127 99.7428 89.127 99.7073 89.127 99.6789C89.1411 99.3738 89.1482 99.0616 89.1553 98.7493H76.8081L76.8152 98.7564ZM85.6286 5.46346L83.003 2.83789L80.3774 5.46346C76.9713 8.86961 75.0979 13.3899 75.0979 18.2152C75.0979 23.0406 76.9713 27.5608 80.3774 30.9599L83.003 33.5926L85.6286 30.9599C89.0276 27.5608 90.9081 23.0335 90.9081 18.2152C90.9081 13.3969 89.0276 8.86961 85.6286 5.46346ZM85.6286 135.046L83.003 132.421L80.3774 135.046C76.9713 138.445 75.0979 142.98 75.0979 147.798C75.0979 152.616 76.9713 157.143 80.3774 160.543L83.003 163.168L85.6286 160.543C89.0276 157.143 90.9081 152.609 90.9081 147.798C90.9081 142.987 89.0276 138.445 85.6286 135.046ZM30.967 80.3774C27.5608 76.9713 23.0264 75.0979 18.2152 75.0979C13.404 75.0979 8.86961 76.9713 5.46346 80.3774L2.83789 83.003L5.46346 85.6286C8.86961 89.0276 13.3969 90.9081 18.2152 90.9081C23.0335 90.9081 27.5608 89.0276 30.967 85.6286L33.5926 83.003L30.967 80.3774ZM160.543 80.3774C157.143 76.9713 152.609 75.0979 147.798 75.0979C142.987 75.0979 138.452 76.9713 135.046 80.3774L132.421 83.003L135.046 85.6286C138.452 89.0276 142.972 90.9081 147.798 90.9081C152.623 90.9081 157.143 89.0276 160.543 85.6286L163.168 83.003L160.543 80.3774Z" fill="#44BEAA"/>
</g>
<mask id="mask1_2_423" style="mask-type:luminance" maskUnits="userSpaceOnUse" x="23" y="24" width="56" height="30">
<path d="M23.8931 24.6953L35.4314 37.0355H44.039C56.2373 37.0355 66.9028 43.7272 72.5442 53.6405L72.8494 52.7534C72.9487 52.4696 73.041 52.1858 73.1474 51.909V51.8522L73.637 50.6317C74.595 48.219 75.7517 45.8631 77.0787 43.5923C77.5967 42.7124 78.1431 41.8396 78.7179 40.981C70.4296 31.0322 57.9617 24.7024 44.0319 24.7024H23.8789L23.8931 24.6953Z" fill="white"/>
</mask>
<g mask="url(#mask1_2_423)">
<path d="M78.7245 24.6953H23.8926V53.6405H78.7245V24.6953Z" fill="url(#paint0_linear_2_423)"/>
</g>
<mask id="mask2_2_423" style="mask-type:luminance" maskUnits="userSpaceOnUse" x="87" y="113" width="56" height="30">
<path d="M93.151 114.858C93.0517 115.142 92.9523 115.426 92.8459 115.703V115.759L92.3633 116.98C91.3983 119.393 90.2416 121.763 88.9217 124.019C88.3966 124.899 87.8502 125.779 87.2754 126.624C95.5637 136.572 108.039 142.909 121.961 142.909H142.114L130.576 130.562H121.961C109.77 130.562 99.1047 123.87 93.4632 113.957L93.1581 114.844L93.151 114.858Z" fill="white"/>
</mask>
<g mask="url(#mask2_2_423)">
<path d="M142.114 113.971H87.2754V142.923H142.114V113.971Z" fill="url(#paint1_linear_2_423)"/>
</g>
</g>
<defs>
<linearGradient id="paint0_linear_2_423" x1="23.6373" y1="38.6709" x2="72.8916" y2="38.6709" gradientUnits="userSpaceOnUse">
<stop stop-color="#138094"/>
<stop offset="0.24" stop-color="#138094"/>
<stop offset="0.51" stop-color="#21929A"/>
<stop offset="1" stop-color="#44BEAA"/>
</linearGradient>
<linearGradient id="paint1_linear_2_423" x1="141.006" y1="128.864" x2="92.9228" y2="128.864" gradientUnits="userSpaceOnUse">
<stop stop-color="#138094"/>
<stop offset="0.22" stop-color="#138094"/>
<stop offset="0.49" stop-color="#21929A"/>
<stop offset="1" stop-color="#44BEAA"/>
</linearGradient>
<clipPath id="clip0_2_423">
<rect width="166" height="166" fill="white"/>
</clipPath>
</defs>
</svg>
