<svg width="114" height="114" viewBox="0 0 114 114" fill="none" xmlns="http://www.w3.org/2000/svg">
<mask id="mask0_169_5474" style="mask-type:alpha" maskUnits="userSpaceOnUse" x="0" y="0" width="114" height="114">
<rect width="114" height="114" rx="27" fill="#D9D9D9"/>
</mask>
<g mask="url(#mask0_169_5474)">
</g>
<g clip-path="url(#clip0_169_5474)">
<mask id="mask1_169_5474" style="mask-type:luminance" maskUnits="userSpaceOnUse" x="10" y="28" width="95" height="58">
<path d="M10.0039 28.5746H104.669V85.3737H10.0039V28.5746Z" fill="white"/>
</mask>
<g mask="url(#mask1_169_5474)">
<path fill-rule="evenodd" clip-rule="evenodd" d="M57.3365 28.5746C44.7145 28.5746 36.8257 34.8856 33.6702 47.5076C38.4034 41.1966 43.9256 38.83 50.2366 40.4077C53.8374 41.307 56.4109 43.9209 59.2596 46.8116C63.8999 51.5221 69.2713 56.9741 81.0028 56.9741C93.6248 56.9741 101.514 50.6631 104.669 38.0411C99.9358 44.3521 94.4136 46.7187 88.1026 45.141C84.5019 44.2417 81.9284 41.6279 79.0797 38.7371C74.4393 34.0266 69.0679 28.5746 57.3365 28.5746ZM33.6702 56.9741C21.0482 56.9741 13.1594 63.2851 10.0039 75.9072C14.7372 69.5961 20.2593 67.2295 26.5703 68.8073C30.1711 69.7083 32.7446 72.3204 35.5933 75.2112C40.2336 79.9217 45.605 85.3737 57.3365 85.3737C69.9585 85.3737 77.8473 79.0627 81.0028 66.4406C76.2695 72.7516 70.7474 75.1183 64.4364 73.5405C60.8356 72.6412 58.2621 70.0274 55.4134 67.1366C50.773 62.4261 45.4017 56.9741 33.6702 56.9741Z" fill="#38BDF8"/>
</g>
</g>
<defs>
<clipPath id="clip0_169_5474">
<rect width="94.6651" height="57.8509" fill="white" transform="translate(10 28.5746)"/>
</clipPath>
</defs>
</svg>
